<svg viewBox="0 0 396 318.3218" width="5000px" height="4019.2147457238398px" xmlns="http://www.w3.org/2000/svg" xmlns:xlink="http://www.w3.org/1999/xlink" preserveAspectRatio="none"><defs></defs><style>.companyName {fill:#FFFFFF;fill-opacity:1;}.icon1 {fill:#FFFFFF;fill-opacity:1;}.icon2 {fill:#D9D9D9;fill-opacity:1;}.icon3 {fill:#B4B4B4;fill-opacity:1;}</style><g opacity="1" transform="rotate(0 0 233.7789)">
<svg width="396" height="84.5429" x="0" y="233.7789" version="1.1" preserveAspectRatio="none" viewBox="0.7813 -28.0078 357.8515 76.3985">
  <g transform="matrix(1 0 0 1 0 0)" class="companyName"><path d="M113.25-25.45L113.25 0L108.17 0L108.17-6.88L90.32-6.88L90.32 0L85.24 0L85.24-14.00Q85.24-17.07 86.30-19.65Q87.35-22.23 89.23-24.08Q91.10-25.94 93.66-26.97Q96.22-28.01 99.25-28.01L99.25-28.01L110.69-28.01Q111.22-28.01 111.69-27.81Q112.16-27.62 112.51-27.27Q112.86-26.91 113.06-26.45Q113.25-25.98 113.25-25.45L113.25-25.45ZM90.32-14.00L90.32-11.95L108.17-11.95L108.17-22.93L99.25-22.93Q99.01-22.93 98.26-22.86Q97.51-22.79 96.52-22.52Q95.54-22.25 94.44-21.68Q93.35-21.11 92.43-20.12Q91.51-19.12 90.92-17.63Q90.32-16.13 90.32-14.00L90.32-14.00Z M146.59-28.01L146.59-2.56Q146.59-2.01 146.40-1.54Q146.20-1.07 145.85-0.73Q145.50-0.39 145.03-0.20Q144.56 0 144.03 0L144.03 0L132.59 0Q130.97 0 129.31-0.35Q127.65-0.70 126.09-1.44Q124.54-2.17 123.17-3.30Q121.81-4.43 120.78-5.99Q119.76-7.54 119.17-9.54Q118.58-11.54 118.58-14.00L118.58-14.00L118.58-28.01L123.66-28.01L123.66-14.00Q123.66-11.86 124.26-10.37Q124.85-8.89 125.77-7.89Q126.69-6.89 127.78-6.33Q128.88-5.76 129.86-5.49Q130.85-5.21 131.60-5.15Q132.35-5.08 132.59-5.08L132.59-5.08L141.51-5.08L141.51-28.01L146.59-28.01Z M174.85-28.01L180.52-28.01L167.26-1.00Q166.94-0.37 166.33 0.01Q165.71 0.39 164.97 0.39L164.97 0.39Q164.25 0.39 163.63 0.01Q163.02-0.37 162.69-1.00L162.69-1.00L149.44-28.01L155.13-28.01L164.97-7.83L174.85-28.01Z M206.42-16.56L206.42-11.45L190.38-11.45L190.38-16.56L206.42-16.56ZM208.70-5.08L208.70 0L190.38 0Q189.33 0 188.08-0.37Q186.83-0.74 185.76-1.59Q184.70-2.44 183.98-3.80Q183.27-5.16 183.27-7.13L183.27-7.13L183.27-25.45Q183.27-25.98 183.47-26.45Q183.66-26.91 184.00-27.27Q184.35-27.62 184.81-27.81Q185.28-28.01 185.83-28.01L185.83-28.01L208.70-28.01L208.70-22.93L188.35-22.93L188.35-7.13Q188.35-6.13 188.88-5.61Q189.40-5.08 190.42-5.08L190.42-5.08L208.70-5.08Z M241.59-21.84L241.59-18.59Q241.59-16.86 241.16-15.49Q240.73-14.12 240.00-13.08Q239.27-12.03 238.31-11.29Q237.35-10.55 236.31-10.07Q235.26-9.59 234.20-9.38Q233.13-9.16 232.20-9.16L232.20-9.16L242.80 0L234.95 0L224.37-9.16L220.71-9.16L220.71-14.24L232.20-14.24Q233.15-14.32 233.95-14.64Q234.74-14.96 235.31-15.51Q235.89-16.05 236.20-16.83Q236.51-17.60 236.51-18.59L236.51-18.59L236.51-21.80Q236.51-22.23 236.41-22.45Q236.30-22.68 236.13-22.78Q235.97-22.89 235.78-22.91Q235.60-22.93 235.44-22.93L235.44-22.93L218.68-22.93L218.68 0L213.60 0L213.60-25.45Q213.60-25.98 213.80-26.45Q213.99-26.91 214.34-27.27Q214.68-27.62 215.15-27.81Q215.62-28.01 216.16-28.01L216.16-28.01L235.44-28.01Q237.14-28.01 238.31-27.39Q239.48-26.78 240.21-25.85Q240.95-24.92 241.27-23.85Q241.59-22.77 241.59-21.84L241.59-21.84Z M274.17-25.45L274.17 0L269.09 0L269.09-6.88L251.24-6.88L251.24 0L246.16 0L246.16-14.00Q246.16-17.07 247.22-19.65Q248.27-22.23 250.15-24.08Q252.02-25.94 254.58-26.97Q257.14-28.01 260.17-28.01L260.17-28.01L271.61-28.01Q272.14-28.01 272.61-27.81Q273.08-27.62 273.43-27.27Q273.78-26.91 273.97-26.45Q274.17-25.98 274.17-25.45L274.17-25.45ZM251.24-14.00L251.24-11.95L269.09-11.95L269.09-22.93L260.17-22.93Q259.93-22.93 259.18-22.86Q258.43-22.79 257.44-22.52Q256.46-22.25 255.36-21.68Q254.27-21.11 253.35-20.12Q252.43-19.12 251.84-17.63Q251.24-16.13 251.24-14.00L251.24-14.00Z M28.26 19.99L28.26 25.07L17.07 25.07L17.07 48L11.99 48L11.99 25.07L0.78 25.07L0.78 19.99L28.26 19.99Z M55.02 31.44L55.02 36.55L38.98 36.55L38.98 31.44L55.02 31.44ZM57.30 42.92L57.30 48L38.98 48Q37.93 48 36.68 47.63Q35.43 47.26 34.37 46.41Q33.30 45.56 32.59 44.20Q31.88 42.84 31.88 40.87L31.88 40.87L31.88 22.55Q31.88 22.02 32.07 21.55Q32.27 21.09 32.61 20.73Q32.95 20.38 33.42 20.19Q33.89 19.99 34.43 19.99L34.43 19.99L57.30 19.99L57.30 25.07L36.95 25.07L36.95 40.87Q36.95 41.87 37.48 42.39Q38.01 42.92 39.02 42.92L39.02 42.92L57.30 42.92Z M87.11 42.92L87.11 48L68.79 48Q68.09 48 67.28 47.83Q66.46 47.67 65.67 47.32Q64.88 46.96 64.16 46.41Q63.44 45.85 62.88 45.06Q62.32 44.27 61.99 43.22Q61.66 42.18 61.66 40.87L61.66 40.87L61.66 27.12Q61.66 26.42 61.83 25.61Q61.99 24.80 62.34 24.01Q62.70 23.21 63.26 22.49Q63.83 21.77 64.62 21.21Q65.41 20.66 66.45 20.32Q67.48 19.99 68.79 19.99L68.79 19.99L87.11 19.99L87.11 25.07L68.79 25.07Q67.79 25.07 67.27 25.60Q66.74 26.13 66.74 27.16L66.74 27.16L66.74 40.87Q66.74 41.85 67.28 42.38Q67.81 42.92 68.79 42.92L68.79 42.92L87.11 42.92Z M97.03 19.99L97.03 31.44L114.86 31.44L114.86 19.99L119.94 19.99L119.94 48L114.86 48L114.86 36.55L97.03 36.55L97.03 48L91.95 48L91.95 19.99L97.03 19.99Z M153.87 19.99L153.87 45.83Q153.87 46.38 153.66 46.85Q153.46 47.32 153.12 47.66Q152.77 48 152.30 48.20Q151.84 48.39 151.31 48.39L151.31 48.39Q150.84 48.39 150.36 48.21Q149.88 48.04 149.51 47.65L149.51 47.65L130.96 28.27L130.96 48L125.88 48L125.88 22.16Q125.88 21.38 126.32 20.74Q126.76 20.11 127.44 19.80L127.44 19.80Q128.16 19.50 128.93 19.65Q129.69 19.80 130.23 20.36L130.23 20.36L148.79 39.72L148.79 19.99L153.87 19.99Z M189.16 31.32L189.16 36.67Q189.16 39.23 188.28 41.38Q187.40 43.53 185.84 45.09Q184.28 46.65 182.14 47.52Q180 48.39 177.48 48.39L177.48 48.39L170.61 48.39Q168.09 48.39 165.94 47.52Q163.79 46.65 162.23 45.09Q160.66 43.53 159.78 41.38Q158.89 39.23 158.89 36.67L158.89 36.67L158.89 31.32Q158.89 28.78 159.78 26.62Q160.66 24.46 162.23 22.91Q163.79 21.36 165.94 20.48Q168.09 19.60 170.61 19.60L170.61 19.60L177.48 19.60Q180 19.60 182.14 20.48Q184.28 21.36 185.84 22.91Q187.40 24.46 188.28 26.62Q189.16 28.78 189.16 31.32L189.16 31.32ZM184.08 36.67L184.08 31.32Q184.08 29.82 183.60 28.60Q183.13 27.38 182.26 26.51Q181.39 25.64 180.17 25.16Q178.95 24.68 177.48 24.68L177.48 24.68L170.61 24.68Q169.12 24.68 167.90 25.16Q166.68 25.64 165.80 26.51Q164.92 27.38 164.44 28.60Q163.96 29.82 163.96 31.32L163.96 31.32L163.96 36.67Q163.96 38.18 164.44 39.40Q164.92 40.62 165.80 41.49Q166.68 42.36 167.90 42.83Q169.12 43.31 170.61 43.31L170.61 43.31L177.44 43.31Q178.93 43.31 180.15 42.83Q181.37 42.36 182.25 41.49Q183.13 40.62 183.60 39.40Q184.08 38.18 184.08 36.67L184.08 36.67Z M219.90 42.92L219.90 48L196.74 48Q196.19 48 195.72 47.80Q195.25 47.61 194.91 47.27Q194.57 46.93 194.38 46.46Q194.18 45.99 194.18 45.44L194.18 45.44L194.18 19.99L199.26 19.99L199.26 42.92L219.90 42.92Z M252.60 31.32L252.60 36.67Q252.60 39.23 251.72 41.38Q250.84 43.53 249.28 45.09Q247.71 46.65 245.58 47.52Q243.44 48.39 240.92 48.39L240.92 48.39L234.04 48.39Q231.52 48.39 229.38 47.52Q227.23 46.65 225.66 45.09Q224.10 43.53 223.21 41.38Q222.32 39.23 222.32 36.67L222.32 36.67L222.32 31.32Q222.32 28.78 223.21 26.62Q224.10 24.46 225.66 22.91Q227.23 21.36 229.38 20.48Q231.52 19.60 234.04 19.60L234.04 19.60L240.92 19.60Q243.44 19.60 245.58 20.48Q247.71 21.36 249.28 22.91Q250.84 24.46 251.72 26.62Q252.60 28.78 252.60 31.32L252.60 31.32ZM247.52 36.67L247.52 31.32Q247.52 29.82 247.04 28.60Q246.56 27.38 245.69 26.51Q244.82 25.64 243.60 25.16Q242.38 24.68 240.92 24.68L240.92 24.68L234.04 24.68Q232.56 24.68 231.34 25.16Q230.12 25.64 229.24 26.51Q228.36 27.38 227.88 28.60Q227.40 29.82 227.40 31.32L227.40 31.32L227.40 36.67Q227.40 38.18 227.88 39.40Q228.36 40.62 229.24 41.49Q230.12 42.36 231.34 42.83Q232.56 43.31 234.04 43.31L234.04 43.31L240.88 43.31Q242.36 43.31 243.58 42.83Q244.80 42.36 245.68 41.49Q246.56 40.62 247.04 39.40Q247.52 38.18 247.52 36.67L247.52 36.67Z M285.25 34.00L285.25 45.44Q285.25 45.99 285.06 46.46Q284.86 46.93 284.52 47.27Q284.18 47.61 283.71 47.80Q283.24 48 282.70 48L282.70 48L264.38 48Q263.67 48 262.86 47.83Q262.05 47.67 261.26 47.32Q260.47 46.96 259.75 46.41Q259.02 45.85 258.47 45.06Q257.91 44.27 257.58 43.22Q257.25 42.18 257.25 40.87L257.25 40.87L257.25 27.12Q257.25 26.42 257.41 25.61Q257.58 24.80 257.93 24.01Q258.28 23.21 258.85 22.49Q259.41 21.77 260.21 21.21Q261.00 20.66 262.03 20.32Q263.07 19.99 264.38 19.99L264.38 19.99L285.02 19.99L285.02 25.07L264.38 25.07Q263.38 25.07 262.85 25.60Q262.32 26.13 262.32 27.16L262.32 27.16L262.32 40.87Q262.32 41.85 262.86 42.38Q263.40 42.92 264.38 42.92L264.38 42.92L280.18 42.92L280.18 36.55L266.66 36.55L266.66 31.44L282.70 31.44Q283.24 31.44 283.71 31.64Q284.18 31.85 284.52 32.20Q284.86 32.55 285.06 33.01Q285.25 33.47 285.25 34.00L285.25 34.00Z M295.66 19.99L295.66 48L290.59 48L290.59 19.99L295.66 19.99Z M324.63 31.44L324.63 36.55L308.59 36.55L308.59 31.44L324.63 31.44ZM326.91 42.92L326.91 48L308.59 48Q307.54 48 306.29 47.63Q305.04 47.26 303.97 46.41Q302.91 45.56 302.20 44.20Q301.48 42.84 301.48 40.87L301.48 40.87L301.48 22.55Q301.48 22.02 301.68 21.55Q301.88 21.09 302.22 20.73Q302.56 20.38 303.03 20.19Q303.50 19.99 304.04 19.99L304.04 19.99L326.91 19.99L326.91 25.07L306.56 25.07L306.56 40.87Q306.56 41.87 307.09 42.39Q307.62 42.92 308.63 42.92L308.63 42.92L326.91 42.92Z M358.63 39.76L358.63 39.76Q358.63 41.26 358.25 42.46Q357.87 43.66 357.25 44.58Q356.62 45.50 355.78 46.14Q354.94 46.79 354.04 47.20Q353.14 47.61 352.22 47.80Q351.29 48 350.47 48L350.47 48L330.88 48L330.88 42.92L350.47 42.92Q351.93 42.92 352.74 42.06Q353.55 41.20 353.55 39.76L353.55 39.76Q353.55 39.05 353.34 38.47Q353.13 37.88 352.72 37.45Q352.32 37.02 351.75 36.79Q351.17 36.55 350.47 36.55L350.47 36.55L338.79 36.55Q337.56 36.55 336.13 36.12Q334.71 35.68 333.49 34.70Q332.27 33.72 331.46 32.14Q330.64 30.56 330.64 28.27L330.64 28.27Q330.64 25.99 331.46 24.42Q332.27 22.84 333.49 21.86Q334.71 20.87 336.13 20.43Q337.56 19.99 338.79 19.99L338.79 19.99L356.07 19.99L356.07 25.07L338.79 25.07Q337.34 25.07 336.53 25.95Q335.72 26.83 335.72 28.27L335.72 28.27Q335.72 29.74 336.53 30.59Q337.34 31.44 338.79 31.44L338.79 31.44L350.47 31.44L350.51 31.44Q351.33 31.46 352.25 31.66Q353.16 31.87 354.07 32.30Q354.98 32.73 355.80 33.38Q356.62 34.04 357.26 34.95Q357.89 35.87 358.26 37.06Q358.63 38.25 358.63 39.76Z"></path></g>
</svg>
</g><g opacity="1" transform="rotate(0 91.1832 0)">
<svg width="213.6338" height="190.5166" x="91.1832" y="0" version="1.1" preserveAspectRatio="none" viewBox="20.000316619873047 28.99983787536621 159.9996795654297 142.68617248535156">
  <g transform="matrix(1 0 0 1 0 0)"><g><path d="M92.872 30.791c7.05-3.766 15.83-1.414 20.053 5.372l.263.439 64.506 111.707H76.693l13.704-23.837 46.035-.002-50.159-86.894.92-1.521a15.209 15.209 0 0 1 4.66-4.669l.571-.347.448-.248z" data-color="1" class="icon1"></path><path d="M86.282 84.177l13.776 23.834-22.955 39.809 100.32.001.882 1.614A15.233 15.233 0 0 1 180 156.42c0 8.253-6.562 14.974-14.754 15.23l-.484.008H35.78l50.502-87.481z" data-color="1" class="icon1"></path><path d="M86.528 37.111l50.504 87.483h-27.55L86.528 84.787l-50.16 86.899-1.84-.045a15.256 15.256 0 0 1-6.899-2.027c-7.147-4.127-9.691-13.164-5.831-20.389l.25-.449 64.48-111.665z" data-color="2" class="icon2"></path><path opacity=".5" d="M86.282 84.177l13.776 23.834-22.955 39.809 100.32.001.882 1.614A15.233 15.233 0 0 1 180 156.42c0 8.253-6.562 14.974-14.754 15.23l-.484.008H35.78l50.502-87.481z" data-color="2" class="icon2"></path></g></g>
</svg>
</g></svg>